<svg xmlns="http://www.w3.org/2000/svg" width="31" height="31" viewBox="0 0 31 31" fill="none">
  <path d="M24.15 8.0125C23.9 7.275 23.2 6.75 22.375 6.75H8.625C7.8 6.75 7.1125 7.275 6.85 8.0125L4.25 15.5V25.5C4.25 26.1875 4.8125 26.75 5.5 26.75H6.75C7.4375 26.75 8 26.1875 8 25.5V24.25H23V25.5C23 26.1875 23.5625 26.75 24.25 26.75H25.5C26.1875 26.75 26.75 26.1875 26.75 25.5V15.5L24.15 8.0125ZM8.625 20.5C7.5875 20.5 6.75 19.6625 6.75 18.625C6.75 17.5875 7.5875 16.75 8.625 16.75C9.6625 16.75 10.5 17.5875 10.5 18.625C10.5 19.6625 9.6625 20.5 8.625 20.5ZM22.375 20.5C21.3375 20.5 20.5 19.6625 20.5 18.625C20.5 17.5875 21.3375 16.75 22.375 16.75C23.4125 16.75 24.25 17.5875 24.25 18.625C24.25 19.6625 23.4125 20.5 22.375 20.5ZM6.75 14.25L8.625 8.625H22.375L24.25 14.25H6.75Z" fill="#1BB371"/>
</svg>