<svg xmlns="http://www.w3.org/2000/svg" width="40" height="40" viewBox="0 0 40 40" fill="none">
<path d="M15 18.3334C15 19.6595 15.5268 20.9312 16.4645 21.8689C17.4021 22.8066 18.6739 23.3334 20 23.3334C21.3261 23.3334 22.5979 22.8066 23.5355 21.8689C24.4732 20.9312 25 19.6595 25 18.3334C25 17.0073 24.4732 15.7355 23.5355 14.7978C22.5979 13.8602 21.3261 13.3334 20 13.3334C18.6739 13.3334 17.4021 13.8602 16.4645 14.7978C15.5268 15.7355 15 17.0073 15 18.3334Z" stroke="#1BB371" stroke-width="3.33333" stroke-linecap="round" stroke-linejoin="round"/>
<path d="M21.3052 35.5433C20.6938 35.8031 20.0188 35.8744 19.3666 35.7479C18.7145 35.6214 18.1151 35.3029 17.6452 34.8333L10.5719 27.7617C9.01965 26.2093 7.87474 24.2978 7.23877 22.1967C6.6028 20.0956 6.49546 17.8699 6.92625 15.7174C7.35705 13.5648 8.31267 11.5519 9.70827 9.85743C11.1039 8.16291 12.8963 6.8392 14.9263 6.0038C16.9564 5.16841 19.1613 4.84718 21.3454 5.06863C23.5294 5.29009 25.625 6.04737 27.4461 7.27326C29.2671 8.49915 30.7573 10.1557 31.7844 12.0959C32.8114 14.036 33.3436 16.1998 33.3335 18.395" stroke="#1BB371" stroke-width="3.33333" stroke-linecap="round" stroke-linejoin="round"/>
<path d="M31.667 30V30.0166M35.202 33.535C35.9014 32.8358 36.3778 31.9449 36.5708 30.9749C36.7639 30.005 36.6649 28.9996 36.2865 28.0858C35.9081 27.1721 35.2673 26.3911 34.445 25.8417C33.6227 25.2922 32.656 24.9989 31.667 24.9989C30.678 24.9989 29.7113 25.2922 28.889 25.8417C28.0667 26.3911 27.4258 27.1721 27.0475 28.0858C26.6691 28.9996 26.5701 30.005 26.7632 30.9749C26.9562 31.9449 27.4326 32.8358 28.132 33.535C28.8287 34.2333 30.007 35.2766 31.667 36.6666C33.4187 35.1833 34.5987 34.14 35.202 33.535Z" stroke="#1BB371" stroke-width="3.33333" stroke-linecap="round" stroke-linejoin="round"/>
</svg>