<svg xmlns="http://www.w3.org/2000/svg" width="41" height="42" viewBox="0 0 41 42" fill="none">
<path d="M35.875 36.765L25.625 26.515M5.125 17.9733C5.125 19.5437 5.43431 21.0988 6.03527 22.5496C6.63624 24.0005 7.51708 25.3187 8.62751 26.4292C9.73795 27.5396 11.0562 28.4204 12.5071 29.0214C13.9579 29.6224 15.5129 29.9317 17.0833 29.9317C18.6537 29.9317 20.2087 29.6224 21.6596 29.0214C23.1104 28.4204 24.4287 27.5396 25.5392 26.4292C26.6496 25.3187 27.5304 24.0005 28.1314 22.5496C28.7324 21.0988 29.0417 19.5437 29.0417 17.9733C29.0417 16.403 28.7324 14.8479 28.1314 13.3971C27.5304 11.9462 26.6496 10.628 25.5392 9.51753C24.4287 8.4071 23.1104 7.52625 21.6596 6.92529C20.2087 6.32433 18.6537 6.01501 17.0833 6.01501C15.5129 6.01501 13.9579 6.32433 12.5071 6.92529C11.0562 7.52625 9.73795 8.4071 8.62751 9.51753C7.51708 10.628 6.63624 11.9462 6.03527 13.3971C5.43431 14.8479 5.125 16.403 5.125 17.9733Z" stroke="#1BB371" stroke-width="3.41667" stroke-linecap="round" stroke-linejoin="round"/>
</svg>