<svg xmlns="http://www.w3.org/2000/svg" width="25" height="24" viewBox="0 0 25 24" fill="none">
<path d="M11.5541 2.42269C12.0434 1.43202 13.4568 1.43202 13.9461 2.42269L15.9661 6.51735C16.1608 6.91069 16.5368 7.18402 16.9701 7.24669L21.4888 7.90269C22.5834 8.06269 23.0194 9.40669 22.2288 10.1774L18.9581 13.3654C18.6448 13.6707 18.5008 14.112 18.5754 14.5454L19.3474 19.0454C19.5341 20.1347 18.3901 20.9654 17.4128 20.4507L13.3701 18.3267C12.9821 18.1214 12.5181 18.1214 12.1301 18.3267L8.08743 20.4507C7.1101 20.9654 5.9661 20.1347 6.15276 19.0454L6.92476 14.5454C6.99943 14.112 6.85543 13.6707 6.5421 13.3654L3.27143 10.1774C2.48076 9.40669 2.91676 8.06269 4.01143 7.90269L8.5301 7.24669C8.96343 7.18402 9.33943 6.91069 9.5341 6.51735L11.5541 2.42269Z" fill="#DDDDDD"/>
</svg>