<svg xmlns="http://www.w3.org/2000/svg" width="21" height="20" viewBox="0 0 21 20" fill="none">
  <path d="M9.5541 1.42269C10.0434 0.432021 11.4568 0.432021 11.9461 1.42269L13.9661 5.51735C14.1608 5.91069 14.5368 6.18402 14.9701 6.24669L19.4888 6.90269C20.5834 7.06269 21.0194 8.40669 20.2288 9.17735L16.9581 12.3654C16.6448 12.6707 16.5008 13.112 16.5754 13.5454L17.3474 18.0454C17.5341 19.1347 16.3901 19.9654 15.4128 19.4507L11.3701 17.3267C10.9821 17.1214 10.5181 17.1214 10.1301 17.3267L6.08743 19.4507C5.1101 19.9654 3.9661 19.1347 4.15276 18.0454L4.92476 13.5454C4.99943 13.112 4.85543 12.6707 4.5421 12.3654L1.27143 9.17735C0.480764 8.40669 0.916764 7.06269 2.01143 6.90269L6.5301 6.24669C6.96343 6.18402 7.33943 5.91069 7.5341 5.51735L9.5541 1.42269Z" fill="#FFF200"/>
</svg>